<svg id="Layer_1" data-name="Layer 1" xmlns="http://www.w3.org/2000/svg" viewBox="0 0 500 500"><defs><style>.cls-1{fill:#9f3e52;}</style></defs><path class="cls-1" d="M23.66,334.74l13.08-2.34,11.44,64.08-13.07,2.34Z"/><path class="cls-1" d="M323.94,170.7l-185.8,33.18A79.53,79.53,0,0,0,73.89,296l28.59,160.1a40.51,40.51,0,0,0,47,32.72L412,442A40.53,40.53,0,0,0,444.72,395l-28.6-160.1a79.53,79.53,0,0,0-92.18-64.21ZM152.58,235.79a58.48,58.48,0,1,1-47.29,67.86,58.49,58.49,0,0,1,47.29-67.86Zm222.2,184.4-198,35.36A34.84,34.84,0,1,1,164.56,387l198-35.36a34.84,34.84,0,1,1,12.25,68.59ZM342,320.72a58.48,58.48,0,1,1,47.3-67.79A58.51,58.51,0,0,1,342,320.72Z"/><path class="cls-1" d="M223.59,486.19,341.5,465.13,348.25,503,230.34,524Z"/><path class="cls-1" d="M364.36,361.86l-198,35.35A24.43,24.43,0,1,0,175,445.3l198-35.36a24.42,24.42,0,1,0-8.59-48.08Z"/><path class="cls-1" d="M171.31,340.63a48.07,48.07,0,1,0-55.76-38.81,48.06,48.06,0,0,0,55.76,38.81ZM158.6,269.48A24.27,24.27,0,1,1,139,297.63a24.27,24.27,0,0,1,19.63-28.15Z"/><path class="cls-1" d="M323.27,215.89A48.07,48.07,0,1,0,379,254.76a48.09,48.09,0,0,0-55.77-38.87ZM336,287a24.27,24.27,0,1,1,19.63-28.1A24.29,24.29,0,0,1,336,287Z"/><path class="cls-1" d="M429.58,251l21.79-3.89L466.7,333l-21.78,3.89Z"/><path class="cls-1" d="M458.44,257.09l11.44,64.08,18.2-3.25-11.44-64.08Z"/><path class="cls-1" d="M45.09,319.69l21.79-3.89,15.33,85.87-21.78,3.89Z"/><path class="cls-1" d="M298,125.72l1.27,38.81,20.14-3.6-12.24-36.84Z"/><path class="cls-1" d="M325.68,78.87A30.83,30.83,0,1,1,289.9,53.93a30.84,30.84,0,0,1,35.78,24.94"/><path class="cls-1" d="M137.76,154.34l1.27,38.8,20.15-3.59L146.94,152.7Z"/><path class="cls-1" d="M165.48,107.48A30.83,30.83,0,1,1,129.7,82.54a30.85,30.85,0,0,1,35.78,24.94"/></svg>