<?xml version="1.0" encoding="UTF-8"?>
<svg width="16px" height="14px" viewBox="0 0 16 14" version="1.1" xmlns="http://www.w3.org/2000/svg" xmlns:xlink="http://www.w3.org/1999/xlink">
    <!-- Generator: Sketch 60.1 (88133) - https://sketch.com -->
    <title>arrow-double--black</title>
    <desc>Created with Sketch.</desc>
    <g id="UX-Updates-v2" stroke="none" stroke-width="1" fill="none" fill-rule="evenodd">
        <g id="Advanced-Search" transform="translate(-1273.000000, -1534.000000)" fill="#231F20">
            <g id="Full-Pager" transform="translate(960.000000, 1521.000000)">
                <g id="Group-6-Copy-9">
                    <g transform="translate(320.000000, 20.000000) rotate(-180.000000) translate(-320.000000, -20.000000) translate(300.000000, 0.000000)">
                        <g id="arrow-double--black" transform="translate(11.000000, 13.000000)">
                            <g id="Group-8" transform="translate(-0.000000, 0.000000)">
                                <g id="book" transform="translate(7.000000, 7.000000) rotate(-270.000000) translate(-7.000000, -7.000000) translate(-0.000000, 0.000000)">
                                    <path d="M2.625,11.375 L2.625,9.625 L9.624,9.625 L9.625,2.625 L11.375,2.625 L11.374,9.625 L11.375,9.625 L11.375,11.375 L2.625,11.375 Z" id="Combined-Shape" transform="translate(7.000000, 7.000000) rotate(-315.000000) translate(-7.000000, -7.000000) "></path>
                                </g>
                                <g id="book" transform="translate(14.000000, 7.000000) rotate(-270.000000) translate(-14.000000, -7.000000) translate(7.000000, 0.000000)">
                                    <path d="M2.625,11.375 L2.625,9.625 L9.624,9.625 L9.625,2.625 L11.375,2.625 L11.374,9.625 L11.375,9.625 L11.375,11.375 L2.625,11.375 Z" id="Combined-Shape" transform="translate(7.000000, 7.000000) rotate(-315.000000) translate(-7.000000, -7.000000) "></path>
                                </g>
                            </g>
                        </g>
                    </g>
                </g>
            </g>
        </g>
    </g>
</svg>