
<svg width="19px" height="13px" viewBox="0 0 19 13" version="1.1" xmlns="http://www.w3.org/2000/svg" xmlns:xlink="http://www.w3.org/1999/xlink">
    <!-- Generator: Sketch 49.3 (51167) - http://www.bohemiancoding.com/sketch -->
    <desc>Created with Sketch.</desc>
    <defs></defs>
    <g id="Page-1" stroke="none" stroke-width="1" fill="none" fill-rule="evenodd">
        <g id="Social_Icons" transform="translate(-93.000000, -1.000000)" fill="#282828" fill-rule="nonzero">
            <path d="M110.83,2.65 C110.34,1.79 109.83,1.65 108.75,1.58 C107.67,1.51 105,1.47 102.68,1.47 C100.36,1.47 97.68,1.47 96.6,1.57 C95.52,1.67 95,1.79 94.53,2.65 C94.06,3.51 93.77,5 93.77,7.59 C93.77,10.18 94.03,11.67 94.53,12.52 C95.03,13.37 95.53,13.52 96.6,13.61 C97.67,13.7 100.35,13.71 102.68,13.71 C105.01,13.71 107.68,13.71 108.75,13.61 C109.82,13.51 110.34,13.38 110.83,12.52 C111.32,11.66 111.58,10.18 111.58,7.59 C111.58,5 111.33,3.51 110.83,2.65 Z M100.45,10.94 L100.45,4.26 L106,7.6 L100.45,10.94 Z" id="Shape"></path>
        </g>
    </g>
</svg>