<?xml version="1.0" encoding="UTF-8"?>
<svg width="46px" height="20px" viewBox="0 0 46 20" version="1.1" xmlns="http://www.w3.org/2000/svg" xmlns:xlink="http://www.w3.org/1999/xlink">
    <!-- Generator: Sketch 60.1 (88133) - https://sketch.com -->
    <title>icon-newsletter</title>
    <desc>Created with Sketch.</desc>
    <g id="UX-Updates-v2" stroke="none" stroke-width="1" fill="none" fill-rule="evenodd">
        <g id="Donate-v1b" transform="translate(-281.000000, -538.000000)" fill="#FFFFFF">
            <g id="icon-newsletter" transform="translate(281.000000, 538.000000)">
                <g id="noun_Mail_1985235">
                    <polygon id="Path" fill-rule="nonzero" points="29.6484375 9.20138889 43.7276105 0 18.0235328 0"></polygon>
                    <polygon id="Path" fill-rule="nonzero" points="13.3231707 17.6757812 23.9291159 7.44357639 15.7116997 0.933159722"></polygon>
                    <polygon id="Path" fill-rule="nonzero" points="45.9517912 1.13932292 35.4773247 7.98611111 43.5413491 18.0230035"></polygon>
                    <path d="M33.6366235,9.1796875 L30.1853087,11.4366319 C29.9990473,11.5559896 29.7908727,11.6210937 29.5826982,11.6210937 C29.341654,11.6210937 29.1006098,11.5451389 28.9033918,11.3823785 L25.649295,8.79991319 L14.5283918,19.53125 L41.9636052,19.53125 L33.6366235,9.1796875 Z" id="Path" fill-rule="nonzero"></path>
                    <path d="M1.68730945,15.8420139 C1.08469893,15.8420139 0.591653963,16.3302951 0.591653963,16.9270833 C0.591653963,17.5238715 1.08469893,18.0121528 1.68730945,18.0121528 L5.02905869,18.0121528 C5.63166921,18.0121528 6.12471418,17.5238715 6.12471418,16.9270833 C6.12471418,16.3302951 5.63166921,15.8420139 5.02905869,15.8420139 L1.68730945,15.8420139 Z" id="Path" fill-rule="nonzero"></path>
                    <path d="M7.91063262,9.765625 C7.91063262,9.16883681 7.41758765,8.68055556 6.81497713,8.68055556 L1.47913491,8.68055556 C0.87652439,8.68055556 0.383479421,9.16883681 0.383479421,9.765625 C0.383479421,10.3624132 0.87652439,10.8506944 1.47913491,10.8506944 L6.81497713,10.8506944 C7.41758765,10.8506944 7.91063262,10.3624132 7.91063262,9.765625 Z" id="Path" fill-rule="nonzero"></path>
                    <path d="M1.16139482,3.68923611 L8.48037348,3.68923611 C9.08298399,3.68923611 9.57602896,3.20095486 9.57602896,2.60416667 C9.57602896,2.00737847 9.08298399,1.51909722 8.48037348,1.51909722 L1.16139482,1.51909722 C0.558784299,1.51909722 0.0657393293,2.00737847 0.0657393293,2.60416667 C0.0657393293,3.20095486 0.558784299,3.68923611 1.16139482,3.68923611 Z" id="Path" fill-rule="nonzero"></path>
                </g>
            </g>
        </g>
    </g>
</svg>