<?xml version="1.0" encoding="UTF-8"?>
<svg width="20px" height="20px" viewBox="0 0 20 20" version="1.1" xmlns="http://www.w3.org/2000/svg" xmlns:xlink="http://www.w3.org/1999/xlink">
    <!-- Generator: Sketch 58 (84663) - https://sketch.com -->
    <title>icon-whatsapp</title>
    <desc>Created with Sketch.</desc>
    <g id="v3" stroke="none" stroke-width="1" fill="none" fill-rule="evenodd">
        <g id="Report" transform="translate(-247.000000, -1123.000000)" fill="#000000">
            <g id="icon-whatsapp" transform="translate(247.000000, 1123.000000)">
                <g id="icons8-whatsapp">
                    <path d="M17.077849,2.928 C15.1917552,1.041 12.6836305,0.001 10.0114977,0 C4.50522396,0 0.0240011931,4.479 0.0220010937,9.985 C0.021001044,11.745 0.481023913,13.463 1.35506736,14.977 L0,20 L5.23326016,18.763 C6.69233269,19.559 8.33441432,19.978 10.0064974,19.979 L10.0104976,19.979 C15.5157713,19.979 19.9969941,15.499 20,9.994 C20.0019943,7.325 18.9639427,4.816 17.077849,2.928 Z M14.8987406,13.554 C14.6907303,14.137 13.6716796,14.699 13.2136569,14.74 C12.7556341,14.782 12.3266128,14.947 10.218508,14.116 C7.68138186,13.116 6.07930221,10.515 5.95529605,10.349 C5.83028983,10.182 4.93624539,8.996 4.93624539,7.768 C4.93624539,6.54 5.58127746,5.936 5.81028884,5.687 C6.03930023,5.437 6.30931365,5.375 6.47632195,5.375 C6.6423302,5.375 6.80933851,5.375 6.95434571,5.381 C7.13235456,5.388 7.32936436,5.397 7.51637365,5.812 C7.73838469,6.306 8.2234088,7.54 8.28541188,7.665 C8.34741497,7.79 8.38941705,7.936 8.30641293,8.102 C8.2234088,8.268 8.18140671,8.372 8.05740055,8.518 C7.93239433,8.664 7.79538752,8.843 7.68338196,8.955 C7.55837574,9.079 7.42836928,9.215 7.57337649,9.464 C7.71938375,9.714 8.2194086,10.531 8.96144549,11.192 C9.91549292,12.042 10.7185328,12.305 10.9685453,12.431 C11.2185577,12.556 11.3635649,12.535 11.5095722,12.368 C11.6555794,12.202 12.1336032,11.64 12.2996114,11.39 C12.4656197,11.14 12.632628,11.182 12.8616394,11.265 C13.0906508,11.348 14.3177118,11.952 14.5667241,12.077 C14.8167366,12.202 14.9827448,12.264 15.0447479,12.368 C15.106751,12.471 15.106751,12.971 14.8987406,13.554 Z" id="Shape" fill-rule="nonzero"></path>
                </g>
            </g>
        </g>
    </g>
</svg>