
<svg width="17px" height="14px" viewBox="0 0 17 14" version="1.1" xmlns="http://www.w3.org/2000/svg" xmlns:xlink="http://www.w3.org/1999/xlink">
    <!-- Generator: Sketch 49.3 (51167) - http://www.bohemiancoding.com/sketch -->
    <desc>Created with Sketch.</desc>
    <defs></defs>
    <g id="Page-1" stroke="none" stroke-width="1" fill="none" fill-rule="evenodd">
        <g id="Social_Icons" transform="translate(0.000000, -1.000000)" fill="#282828" fill-rule="nonzero">
            <path d="M5.14,15 C7.67506551,15.0160961 10.1109652,14.0161615 11.9035634,12.2235634 C13.6961615,10.4309652 14.6960961,7.99506551 14.68,5.46 C14.68,5.32 14.68,5.17 14.68,5.03 C15.3343616,4.55237994 15.8996363,3.96341116 16.35,3.29 C15.7375093,3.56419577 15.0866253,3.74293594 14.42,3.82 C15.1145994,3.41179265 15.6370622,2.76493403 15.89,2 C15.2301246,2.3868635 14.5101936,2.66064006 13.76,2.81 C12.8199576,1.83583223 11.3859828,1.52319858 10.1257504,2.01766477 C8.86551799,2.51213096 8.02675545,3.71649835 8,5.07 C7.99917079,5.32933821 8.02938569,5.5878435 8.09,5.84 C5.37858731,5.71541963 2.84961469,4.43819749 1.14,2.33 C0.237117552,3.85296029 0.675193749,5.81554165 2.14,6.81 C1.62094062,6.7856267 1.11448981,6.64190417 0.66,6.39 C0.638045773,8.00285683 1.76857787,9.40236311 3.35,9.72 C3.06018754,9.80036876 2.76074881,9.84074253 2.46,9.84 C2.24858001,9.83986517 2.03764463,9.81977609 1.83,9.78 C2.27662054,11.1568584 3.55259701,12.0947212 5,12.11 C3.80112588,13.0463028 2.32113707,13.5502038 0.8,13.54 C0.533551377,13.5552506 0.266448623,13.5552506 -1.77635684e-15,13.54 C1.53790154,14.5094417 3.32211814,15.0162425 5.14,15" id="Shape"></path>
        </g>
    </g>
</svg>