<svg id="LOGO" xmlns="http://www.w3.org/2000/svg" viewBox="0 0 284.05 120.56"><defs><style>.cls-1{fill:#fff;}</style></defs><title>TNH_LOGO_Secondary_White_RGB</title><rect class="cls-1" x="272.59" width="11.46" height="120.56"/><polygon class="cls-1" points="36.26 5.53 0 5.29 0 30.53 4.21 30.53 12.5 10.24 26.35 10.11 26.35 86.83 14.35 88.07 14.6 92.15 35.88 91.9 56.92 92.15 57.29 88.07 45.41 86.83 45.41 10.11 59.15 10.24 67.56 30.53 71.64 30.53 71.64 5.29 36.26 5.53"/><polygon class="cls-1" points="93.37 22.73 91.27 16.05 91.27 86.83 100.18 88.06 100.06 92.15 88.3 91.9 76.79 92.15 76.42 88.06 85.21 86.83 85.21 10.73 76.55 9.24 76.92 5.29 87.06 5.53 103.64 5.29 142.62 59.85 144.85 65.92 144.85 10.48 135.94 9.24 136.06 5.29 147.69 5.53 159.2 5.29 159.57 9.24 150.91 10.48 150.91 92.52 141.63 92.52 93.37 22.73"/><polygon class="cls-1" points="165.59 88.06 174.38 86.83 174.38 10.48 165.59 9.24 165.96 5.29 183.78 5.53 201.1 5.29 201.47 9.24 193.43 10.48 193.43 44.51 225.85 44.51 225.85 10.48 217.69 9.24 217.93 5.29 235.38 5.53 253.07 5.29 253.44 9.24 244.91 10.48 244.91 86.83 253.44 88.06 253.07 92.15 235.38 91.9 217.93 92.15 217.69 88.06 225.85 86.83 225.85 49.71 193.43 49.71 193.43 86.83 201.47 88.06 201.1 92.15 183.78 91.9 165.96 92.15 165.59 88.06"/></svg>