<?xml version="1.0" encoding="UTF-8" standalone="no"?>
<svg width="16px" height="16px" viewBox="0 0 16 16" version="1.1" xmlns="http://www.w3.org/2000/svg" xmlns:xlink="http://www.w3.org/1999/xlink">
    <!-- Generator: Sketch 44 (41411) - http://www.bohemiancoding.com/sketch -->
    <title>Shape</title>
    <desc>Created with Sketch.</desc>
    <defs></defs>
    <g id="Page-1" stroke="none" stroke-width="1" fill="none" fill-rule="evenodd">
        <g id="paypal" fill-rule="nonzero" fill="#1B5C98">
            <path d="M4.613,16 L2.543,16 C2.1,16 1.819,15.646 1.919,15.214 L2.019,14.764 L3.4,14.764 C3.844,14.764 4.29,14.409 4.388,13.977 L5.098,10.915 C5.198,10.483 5.642,10.129 6.085,10.129 L6.673,10.129 C9.199,10.129 11.163,9.609 12.567,8.569 C13.971,7.529 14.673,6.169 14.673,4.479 C14.673,3.729 14.543,3.109 14.281,2.619 C14.281,2.609 14.271,2.599 14.271,2.589 L14.361,2.639 C14.861,2.949 15.241,3.349 15.501,3.849 C15.771,4.349 15.901,4.969 15.901,5.709 C15.901,7.399 15.201,8.759 13.791,9.799 C12.391,10.829 10.421,11.349 7.901,11.349 L7.301,11.349 C6.861,11.349 6.411,11.699 6.311,12.139 L5.601,15.209 C5.501,15.639 5.061,15.989 4.621,15.989 L4.613,16 Z M2.828,14.203 L0.758,14.203 C0.316,14.203 0.035,13.85 0.134,13.417 L3.05,0.787 C3.15,0.353 3.593,0 4.036,0 L8.346,0 C9.276,0 10.086,0.065 10.779,0.192 C11.469,0.319 12.059,0.538 12.569,0.852 C13.059,1.162 13.449,1.567 13.699,2.065 C13.959,2.563 14.089,3.185 14.089,3.929 C14.089,5.619 13.389,6.979 11.979,8.009 C10.579,9.049 8.609,9.559 6.089,9.559 L5.5,9.559 C5.06,9.559 4.614,9.909 4.515,10.339 L3.808,13.399 C3.708,13.829 3.263,14.179 2.818,14.179 L2.828,14.203 Z M7.792,2.623 L7.116,2.623 C6.672,2.623 6.228,2.976 6.129,3.408 L5.509,6.088 C5.409,6.521 5.689,6.874 6.129,6.874 L6.639,6.874 C7.749,6.874 8.619,6.646 9.239,6.194 C9.859,5.737 10.169,5.091 10.169,4.252 C10.169,3.699 9.969,3.289 9.569,3.026 C9.169,2.756 8.569,2.622 7.779,2.622 L7.792,2.623 Z" id="Shape"></path>
        </g>
    </g>
</svg>